<?xml version="1.0" standalone="no"?>
<!DOCTYPE svg PUBLIC "-//W3C//DTD SVG 20010904//EN"
 "http://www.w3.org/TR/2001/REC-SVG-20010904/DTD/svg10.dtd">
<svg version="1.0" xmlns="http://www.w3.org/2000/svg"
 width="180.000000pt" height="180.000000pt" viewBox="0 0 180.000000 180.000000"
 preserveAspectRatio="xMidYMid meet" style="background: #E6E6E6;">

<g transform="translate(0.000000,180.000000) scale(0.100000,-0.100000)"
fill="#070707" stroke="none">
<path d="M0 900 l0 -900 900 0 900 0 0 900 0 900 -900 0 -900 0 0 -900z m590
340 l0 -120 -120 0 -120 0 0 120 0 120 120 0 120 0 0 -120z m430 -385 l0 -505
-120 0 -120 0 0 505 0 505 120 0 120 0 0 -505z m430 385 l0 -120 -120 0 -120
0 0 120 0 120 120 0 120 0 0 -120z"/>
</g>
</svg>
